<svg width="128" height="128" viewBox="0 0 128 128" fill="none" xmlns="http://www.w3.org/2000/svg">
<path d="M126.63 33.57C126.629 30.9402 126.365 28.317 125.84 25.74C125.315 23.1019 124.423 20.5504 123.19 18.16C121.901 15.8447 120.299 13.718 118.43 11.84C116.502 9.95339 114.262 8.41409 111.81 7.29C109.39 6.0697 106.802 5.217 104.13 4.76C101.48 4.25 98.57 4.25 95.92 4H30.55C28.5109 4.0332 26.4763 4.20359 24.46 4.51C22.4591 4.74555 20.5005 5.25708 18.64 6.03C18.11 6.28 17.32 6.54 16.79 6.79C15.0298 7.73356 13.3565 8.83118 11.79 10.07C11.26 10.58 10.73 10.83 10.2 11.33C8.25106 13.1377 6.63928 15.2777 5.44 17.65C4.13033 20.0068 3.23404 22.5706 2.79 25.23C2.39592 27.8252 2.13226 30.4384 2 33.06V93.45C2.00082 96.0799 2.26548 98.703 2.79 101.28C3.31478 103.918 4.20679 106.47 5.44 108.86C6.72879 111.175 8.33052 113.302 10.2 115.18C12.1282 117.067 14.3678 118.606 16.82 119.73C19.2401 120.95 21.8285 121.803 24.5 122.26C27.15 122.77 30.06 122.77 32.71 123.02H95.93C98.6841 123.018 101.432 122.764 104.14 122.26C106.812 121.803 109.4 120.95 111.82 119.73C114.22 118.516 116.446 116.985 118.44 115.18C120.389 113.372 122.001 111.232 123.2 108.86C124.51 106.503 125.406 103.939 125.85 101.28C126.244 98.6849 126.508 96.0716 126.64 93.45V33.57H126.63Z" fill="white"/>
<rect x="31" y="42" width="66" height="52" fill="#4FB1F2"/>
<path d="M94.3649 39.2139H77.489V35.8196C77.489 33.1159 75.0131 31 71.8612 31H55.6759C52.5167 31 50.0482 33.1159 50.0482 35.8196V39.2139H33.6278C30.52 39.2139 28 41.7412 28 44.849V92.0163C28 95.1241 30.5273 97.6514 33.6278 97.6514H94.3649C97.4726 97.6514 100 95.1241 100 92.0163V44.849C100 41.7412 97.4726 39.2139 94.3649 39.2139ZM56.3739 37.3257L71.1633 37.3331V39.2139H56.3739V37.3257ZM55.3527 45.5469C55.4629 45.5543 55.5657 45.5763 55.6759 45.5763H71.8612C71.9714 45.5763 72.0743 45.5543 72.1845 45.5469H93.6669V65.2661H76.8792V63.6425C76.8792 60.5347 74.3518 58.0073 71.2441 58.0073H56.5796C53.4718 58.0073 50.9518 60.5347 50.9518 63.6425V65.2661H34.3331V45.5469H55.3527ZM70.5461 64.3404V72.5176H57.2776V64.3404H70.5461ZM34.3331 91.3184V71.5992H50.9518V73.2229C50.9518 76.3306 53.4792 78.8506 56.5796 78.8506H71.2441C74.3518 78.8506 76.8792 76.3233 76.8792 73.2229V71.5992H93.6743V91.3184H34.3331Z" fill="#092D4B"/>
</svg>
